<?xml version="1.0" standalone="no"?>
<!DOCTYPE svg PUBLIC "-//W3C//DTD SVG 20010904//EN"
 "http://www.w3.org/TR/2001/REC-SVG-20010904/DTD/svg10.dtd">
<svg version="1.0" xmlns="http://www.w3.org/2000/svg"
 width="800.000000pt" height="800.000000pt" viewBox="0 0 800.000000 800.000000"
 preserveAspectRatio="xMidYMid meet">

<g transform="translate(0.000000,800.000000) scale(0.100000,-0.100000)"
fill="#000000" stroke="none">
<path d="M3805 6438 c-177 -199 -221 -297 -213 -469 4 -85 9 -107 37 -163 52
-106 132 -154 241 -144 67 7 118 43 155 109 30 54 30 55 29 209 0 134 -4 168
-26 251 -28 102 -87 249 -116 286 -17 22 -17 22 -107 -79z"/>
<path d="M3532 6264 c-50 -57 -106 -166 -127 -244 -44 -164 14 -332 140 -405
23 -14 80 -40 126 -57 71 -26 98 -31 179 -32 82 -1 102 2 145 24 67 33 129 99
154 164 11 29 25 100 31 157 10 91 18 134 46 239 l7 25 -26 -23 c-34 -32 -72
-120 -97 -225 -33 -142 -73 -209 -150 -251 -92 -50 -201 -34 -299 43 -43 35
-92 120 -116 205 -22 77 -16 220 15 329 12 43 20 83 18 89 -2 6 -23 -11 -46
-38z"/>
<path d="M4740 5659 c-140 -24 -243 -109 -355 -295 -20 -33 -36 -51 -39 -43
-2 8 -14 52 -27 99 -21 81 -72 200 -86 200 -16 0 -134 -128 -158 -171 -34 -64
-47 -144 -34 -217 15 -79 31 -106 120 -199 43 -44 97 -108 122 -141 88 -120
164 -300 182 -429 4 -29 10 -53 13 -53 4 0 36 10 72 22 83 27 215 29 322 4 43
-9 83 -14 89 -10 7 4 9 3 6 -3 -9 -15 97 -36 174 -35 117 2 224 54 310 150 51
56 99 146 99 183 0 20 -2 21 -11 9 -9 -12 -10 -11 -6 7 3 14 -3 29 -17 42 -32
31 -113 63 -138 55 -14 -4 -17 -9 -8 -14 8 -5 7 -9 -5 -13 -9 -4 -13 -3 -10 3
3 6 1 10 -6 10 -8 0 -6 5 5 13 16 11 15 13 -8 15 -14 1 -26 -3 -26 -9 0 -6 -8
-3 -17 7 -17 16 -26 84 -12 84 14 0 51 136 56 205 7 90 -1 127 -24 118 -11 -4
-14 -3 -9 6 4 6 2 18 -4 26 -6 8 -9 18 -6 23 3 5 -26 10 -64 11 -56 2 -79 -3
-124 -24 -66 -31 -84 -50 -69 -73 6 -10 17 -15 25 -14 7 2 10 0 6 -3 -4 -4 11
-40 33 -80 57 -104 72 -163 73 -280 1 -107 -17 -181 -55 -229 -11 -14 -17 -30
-14 -36 4 -6 1 -9 -7 -8 -8 2 -12 -5 -11 -17 1 -11 0 -14 -3 -7 -4 9 -15 5
-37 -14 -18 -15 -32 -32 -32 -38 -1 -6 -6 -10 -13 -8 -7 1 -30 -7 -52 -18 -64
-33 -88 -27 -110 25 -29 67 -79 141 -178 264 -105 131 -154 223 -160 301 -4
49 0 60 30 104 71 106 176 123 298 50 36 -21 72 -38 80 -37 10 2 11 1 2 -3 -9
-4 -5 -14 13 -35 69 -82 50 -235 -33 -275 -47 -22 -134 -22 -185 0 -21 9 -58
35 -83 58 -24 22 -47 38 -50 35 -12 -11 69 -108 124 -150 49 -37 62 -42 108
-42 43 0 59 5 91 31 46 37 99 112 113 162 17 58 25 162 12 162 -5 0 -8 10 -4
22 3 13 1 19 -5 15 -7 -4 -9 0 -7 11 7 24 -37 86 -64 90 -12 2 -20 8 -17 13
13 20 -47 26 -195 19 -135 -7 -167 -12 -247 -39 -51 -17 -116 -42 -144 -56
-28 -15 -55 -25 -60 -23 -14 5 119 136 165 163 77 44 173 69 271 69 107 0 175
-20 242 -71 60 -46 69 -36 56 60 -12 85 -48 164 -104 230 -45 52 -61 55 -179
36z m140 -404 c-7 -8 -17 -15 -23 -15 -6 0 -2 7 9 15 25 19 30 19 14 0z m457
-47 c-3 -8 -6 -5 -6 6 -1 11 2 17 5 13 3 -3 4 -12 1 -19z m3 -103 c0 -5 -5 -3
-10 5 -5 8 -10 20 -10 25 0 6 5 3 10 -5 5 -8 10 -19 10 -25z m-163 -87 c-3 -8
-6 -5 -6 6 -1 11 2 17 5 13 3 -3 4 -12 1 -19z m306 -423 c-3 -9 -8 -14 -10
-11 -3 3 -2 9 2 15 9 16 15 13 8 -4z m-13 -29 c0 -2 -8 -10 -17 -17 -16 -13
-17 -12 -4 4 13 16 21 21 21 13z m-70 -60 c0 -2 -8 -10 -17 -17 -16 -13 -17
-12 -4 4 13 16 21 21 21 13z m-363 -42 c-3 -3 -12 -4 -19 -1 -8 3 -5 6 6 6 11
1 17 -2 13 -5z m-92 -24 c-3 -5 -12 -10 -18 -10 -7 0 -6 4 3 10 19 12 23 12
15 0z m310 -20 c-3 -5 -11 -10 -16 -10 -6 0 -7 5 -4 10 3 6 11 10 16 10 6 0 7
-4 4 -10z"/>
<path d="M2803 5610 c-13 -5 -23 -15 -23 -21 0 -22 228 -373 409 -629 103
-146 260 -357 372 -501 39 -50 69 -93 66 -95 -8 -8 -263 267 -358 386 -139
175 -364 497 -503 723 -27 42 -50 77 -53 77 -2 0 -30 -17 -61 -37 -78 -52
-152 -125 -152 -150 0 -16 249 -374 289 -416 5 -4 31 6 59 23 27 18 58 30 69
28 15 -3 10 -12 -30 -55 l-49 -52 18 -36 c26 -55 44 -59 97 -24 50 33 117 50
117 30 0 -22 -28 -66 -64 -100 -20 -19 -36 -42 -36 -50 0 -9 62 -99 137 -200
l136 -183 36 6 c189 34 343 9 524 -84 20 -10 37 -17 37 -14 0 3 -55 81 -122
173 -68 93 -194 273 -281 402 -86 129 -246 362 -355 519 -179 259 -200 285
-227 287 -17 1 -40 -2 -52 -7z"/>
<path d="M3537 5564 c-11 -11 -8 -77 4 -113 9 -27 7 -42 -14 -99 -67 -182 -59
-374 23 -556 37 -84 79 -146 149 -220 59 -61 96 -86 131 -86 18 0 11 10 -35
52 -134 123 -225 303 -241 481 -12 130 29 334 75 373 9 8 33 28 54 45 20 17
37 39 37 49 0 27 -163 93 -183 74z"/>
<path d="M3681 5274 l-33 -15 5 -157 c6 -196 27 -267 123 -418 88 -137 148
-180 290 -206 57 -10 154 -36 216 -58 62 -22 118 -40 124 -40 8 0 9 15 2 50
-27 149 -104 314 -257 548 -72 110 -108 155 -155 193 -121 98 -240 137 -315
103z"/>
<path d="M4630 5175 c-19 -20 -22 -32 -18 -74 12 -122 144 -235 234 -200 35
13 44 25 44 65 0 44 -18 55 -98 57 -41 1 -76 8 -85 16 -28 23 -21 67 18 105
33 33 34 36 16 46 -35 18 -86 12 -111 -15z"/>
<path d="M4814 5104 c-10 -8 -13 -12 -6 -9 8 4 26 11 40 15 22 7 23 8 6 9 -11
1 -29 -6 -40 -15z"/>
<path d="M5095 5005 c2 -27 6 -61 10 -75 l6 -25 -12 25 c-11 24 -11 24 -19 5
-12 -27 -12 -37 -1 -31 5 4 7 -3 4 -15 -4 -16 -8 -17 -14 -7 -6 8 -9 9 -9 1 0
-6 -3 -19 -7 -29 -4 -12 -3 -15 5 -10 7 4 12 2 12 -4 0 -7 -6 -10 -14 -7 -23
9 -37 -13 -24 -37 10 -18 9 -19 -4 -9 -12 11 -19 9 -36 -10 -12 -13 -19 -27
-15 -32 5 -4 3 -5 -4 -2 -6 4 -38 -11 -71 -34 l-59 -41 33 -56 c19 -31 34 -66
34 -79 l0 -23 38 24 c20 13 36 29 34 35 -1 6 4 11 11 11 19 0 49 35 40 45 -5
4 -3 5 3 2 10 -6 61 74 65 100 1 5 6 19 11 33 6 16 6 26 -1 28 -6 2 -11 8 -11
13 0 6 5 7 10 4 13 -8 6 175 -9 220 -8 26 -9 24 -6 -20z m2 -257 c-3 -7 -5 -2
-5 12 0 14 2 19 5 13 2 -7 2 -19 0 -25z m-47 8 c0 -3 -4 -8 -10 -11 -5 -3 -10
-1 -10 4 0 6 5 11 10 11 6 0 10 -2 10 -4z m40 -40 c0 -3 -4 -8 -10 -11 -5 -3
-10 -1 -10 4 0 6 5 11 10 11 6 0 10 -2 10 -4z"/>
<path d="M2723 4353 c10 -247 49 -418 136 -591 149 -296 388 -415 770 -382
160 14 164 16 146 76 -46 155 -170 271 -518 485 -112 69 -239 170 -306 245
-62 70 -148 196 -187 277 -16 31 -32 57 -38 57 -5 0 -7 -65 -3 -167z"/>
<path d="M3870 4410 c-15 -9 -7 -25 13 -25 7 -1 11 -6 9 -13 -2 -12 114 -172
124 -172 3 0 2 6 -2 13 -4 6 -4 9 1 5 4 -4 14 -3 22 3 10 9 13 8 13 0 0 -7 4
-9 10 -6 6 4 7 -1 3 -11 -4 -11 -8 -13 -11 -6 -2 7 -8 12 -13 12 -16 0 -10
-26 11 -45 11 -10 20 -15 20 -10 0 4 7 2 15 -5 9 -7 13 -15 10 -18 -3 -3 5
-16 17 -29 17 -19 24 -21 37 -10 14 10 14 10 3 -4 -10 -13 -9 -19 3 -29 8 -7
15 -9 15 -4 0 5 5 1 11 -9 6 -9 14 -15 19 -12 5 3 15 -3 22 -15 7 -11 18 -20
25 -20 7 0 13 -4 13 -10 0 -5 12 -16 28 -24 23 -12 29 -12 40 0 7 8 18 14 25
14 7 0 4 -5 -5 -11 -22 -13 -23 -25 -2 -33 12 -4 15 -2 10 9 -3 9 0 15 10 15
8 0 13 -4 10 -9 -3 -5 7 -12 22 -15 96 -24 100 -26 47 -22 l-50 4 54 -17 c53
-18 267 -29 226 -12 -19 8 -19 8 0 19 16 9 18 13 8 23 -7 7 -13 20 -13 29 0 9
-12 22 -26 28 -16 8 -22 17 -18 25 6 8 3 8 -9 -1 -9 -8 -21 -11 -28 -7 -6 4
-15 1 -20 -6 -6 -10 -8 -8 -6 8 0 12 4 20 8 17 12 -7 39 7 33 17 -3 5 -15 14
-27 19 -21 11 -21 11 -3 -4 11 -9 15 -16 9 -16 -14 0 -36 27 -30 37 3 4 -11
24 -30 43 l-36 35 28 -37 c15 -21 23 -38 19 -38 -16 0 -56 68 -48 82 4 7 4 10
-1 6 -4 -4 -14 0 -22 10 -14 16 -14 16 -9 0 3 -12 0 -18 -10 -18 -12 0 -13 4
-4 20 12 22 6 40 -12 40 -6 0 -21 12 -34 26 -13 14 -29 22 -34 19 -6 -4 -9 -1
-8 6 2 10 -11 13 -44 14 -34 0 -44 3 -37 11 7 8 6 14 -3 17 -8 3 -8 6 -2 6 6
1 17 -6 24 -14 13 -16 30 -20 30 -7 0 5 -16 16 -35 25 -19 9 -35 12 -35 7 0
-5 -7 -7 -16 -3 -13 5 -13 7 -2 14 10 7 8 9 -7 10 -11 1 -26 1 -33 0 -6 -1
-20 3 -30 9 -14 9 -13 10 8 5 21 -5 22 -4 7 5 -9 6 -35 12 -56 13 -22 0 -37 5
-35 9 7 11 -10 10 -21 -1 -6 -4 -26 -13 -45 -20 l-35 -11 27 24 28 25 -57 7
c-48 6 -58 4 -70 -12 -12 -16 -18 -13 -14 9 1 10 -11 9 -29 -3z m50 -52 c0
-18 -2 -20 -9 -8 -6 8 -7 18 -5 22 9 14 14 9 14 -14z m501 -171 c-10 -9 -11
-8 -5 6 3 10 9 15 12 12 3 -3 0 -11 -7 -18z m77 -102 c-3 -3 -9 2 -12 12 -6
14 -5 15 5 6 7 -7 10 -15 7 -18z m14 -60 c-2 -14 -8 -25 -13 -25 -14 0 -11 38
4 43 6 3 13 6 13 6 1 1 -1 -10 -4 -24z m-208 -54 c-2 -3 -12 3 -22 13 -16 17
-16 18 5 5 12 -7 20 -15 17 -18z m346 -6 c0 -8 -9 -19 -20 -25 -16 -9 -20 -8
-20 5 0 8 7 15 15 15 8 0 15 5 15 10 0 6 2 10 5 10 3 0 5 -7 5 -15z"/>
<path d="M4620 4369 c-30 -5 -57 -13 -60 -17 -3 -4 -9 -7 -15 -7 -5 0 -34 -6
-64 -14 l-53 -14 28 -23 c16 -13 34 -21 41 -19 7 2 10 -2 6 -11 -4 -10 1 -13
17 -12 13 2 24 -3 26 -10 1 -7 0 -8 -3 -2 -2 5 -10 10 -16 10 -6 0 4 -16 23
-35 19 -19 40 -35 48 -35 7 0 10 -5 6 -12 -5 -8 -2 -9 10 -5 9 4 15 3 12 -2
-8 -12 31 -44 44 -36 6 3 9 1 8 -6 -4 -15 120 -101 133 -93 5 3 8 0 7 -8 -2
-7 5 -12 14 -12 10 1 16 -2 13 -6 -7 -11 24 -22 37 -13 7 4 8 1 3 -7 -6 -10
-3 -12 12 -8 12 3 27 1 34 -4 10 -7 9 -8 -6 -3 -15 5 -17 3 -9 -5 20 -20 154
-50 221 -50 53 0 63 3 63 18 0 14 2 15 9 2 8 -12 17 -12 66 4 30 9 53 21 50
27 -4 5 1 9 9 9 9 0 16 4 16 8 0 5 -13 7 -29 4 -22 -3 -29 1 -34 17 -3 12 0
24 5 28 7 4 8 1 3 -7 -6 -10 -4 -12 10 -6 15 5 16 4 5 -9 -17 -20 5 -20 40 1
l25 15 -24 -7 c-19 -5 -23 -3 -18 9 3 9 -11 31 -39 58 -24 24 -44 39 -44 33 0
-5 5 -15 10 -20 7 -7 6 -11 -5 -11 -8 0 -13 2 -10 5 2 2 -3 18 -11 35 -13 24
-18 27 -26 16 -7 -11 -9 -9 -5 8 3 15 1 20 -9 16 -8 -3 -14 0 -14 6 0 22 -2
26 -17 44 -9 9 -22 17 -30 17 -7 0 -13 7 -13 15 0 14 -12 19 -33 16 -4 0 -6 4
-5 11 5 20 -130 83 -178 83 -23 0 -38 3 -32 6 28 18 -158 23 -252 8z m-133
-70 c2 -17 -1 -18 -12 -9 -8 7 -12 16 -9 21 9 16 20 10 21 -12z m578 -27 c-6
-7 -34 11 -29 19 3 5 11 3 19 -4 7 -6 12 -13 10 -15z m90 -62 c3 -5 1 -10 -4
-10 -6 0 -11 5 -11 10 0 6 2 10 4 10 3 0 8 -4 11 -10z m-531 -8 c2 -4 -4 -8
-14 -8 -10 0 -16 4 -14 8 3 4 9 8 14 8 5 0 11 -4 14 -8z m701 -171 c-3 -2 -11
1 -18 7 -8 7 -16 10 -18 7 -3 -2 -5 4 -6 14 -1 17 0 16 22 -3 13 -11 22 -23
20 -25z m-520 19 c-3 -5 -11 -10 -16 -10 -6 0 -7 5 -4 10 3 6 11 10 16 10 6 0
7 -4 4 -10z m489 -85 c18 -13 18 -14 -2 -12 -11 0 -19 4 -16 8 2 4 -2 10 -8
12 -7 3 -8 6 -3 6 6 0 18 -6 29 -14z m-259 -21 c9 3 13 2 10 -4 -10 -15 -31
-12 -46 8 -13 15 -12 16 3 3 10 -7 25 -11 33 -7z m210 -4 c3 -5 1 -10 -4 -10
-6 0 -11 5 -11 10 0 6 2 10 4 10 3 0 8 -4 11 -10z m-85 -10 c11 -7 0 -10 -38
-10 -29 0 -51 4 -48 8 7 12 69 13 86 2z"/>
<path d="M3313 4283 c-56 -11 9 -63 77 -63 102 0 285 -65 397 -141 79 -53 167
-135 245 -226 62 -72 117 -121 177 -158 17 -10 16 -8 -62 110 -85 128 -210
295 -244 327 -36 34 -149 90 -234 116 -111 34 -276 50 -356 35z"/>
<path d="M3375 4169 c5 -8 46 -66 92 -130 l83 -116 93 -6 c119 -7 185 -25 331
-92 l120 -55 -35 36 c-40 42 -195 168 -259 211 -103 70 -281 143 -385 159 -39
5 -46 4 -40 -7z"/>
<path d="M4690 3942 c0 -12 19 -26 26 -19 2 2 -2 10 -11 17 -9 8 -15 8 -15 2z"/>
<path d="M4700 3899 c0 -11 27 -12 34 -1 2 4 -4 9 -15 9 -10 1 -19 -2 -19 -8z"/>
<path d="M3604 3854 c9 -16 69 -101 133 -188 102 -138 122 -160 148 -163 87
-9 224 -49 298 -86 66 -33 101 -60 183 -141 55 -56 116 -121 135 -146 26 -35
10 -24 -71 50 -127 116 -209 175 -317 229 -73 37 -222 85 -232 75 -2 -2 11
-27 30 -55 l33 -52 -24 -15 c-38 -24 -171 -161 -218 -224 -148 -201 -192 -428
-84 -428 43 0 62 33 62 109 0 86 32 186 90 279 47 76 179 242 191 242 11 0 48
-50 217 -295 129 -186 141 -200 172 -203 71 -7 171 54 210 127 l19 36 0 -40
c1 -84 -69 -153 -172 -169 -33 -6 -37 -9 -27 -21 31 -37 128 -27 202 21 76 49
102 163 59 259 -49 111 -361 510 -473 605 -132 110 -331 193 -521 216 l-59 7
16 -29z"/>
<path d="M5160 3784 c-87 -37 -205 -71 -330 -94 -128 -24 -195 -43 -255 -73
-49 -25 -155 -125 -155 -147 0 -23 74 -121 108 -142 62 -40 218 -11 346 64
113 67 257 215 329 339 26 44 35 80 20 78 -5 0 -33 -11 -63 -25z"/>
<path d="M1300 2200 l0 -220 39 0 40 0 -2 88 -2 87 73 3 c72 3 72 3 72 31 0
27 -2 28 -66 34 -37 4 -69 9 -72 12 -3 3 -6 29 -6 58 l-1 52 98 3 97 3 0 34 0
35 -135 0 -135 0 0 -220z"/>
<path d="M1650 2200 l0 -220 130 0 130 0 0 30 0 30 -90 0 c-79 0 -90 2 -91 18
0 9 0 50 1 91 1 41 -2 118 -6 172 l-7 99 -33 0 -34 0 0 -220z"/>
<path d="M2086 2400 c-91 -46 -130 -115 -124 -218 7 -121 84 -202 199 -210 94
-7 167 32 216 115 65 112 12 267 -109 317 -51 22 -134 20 -182 -4z m174 -72
c66 -46 89 -138 51 -208 -21 -39 -89 -80 -133 -80 -66 0 -133 62 -143 135 -9
56 21 124 68 154 44 29 114 28 157 -1z"/>
<path d="M2500 2201 l0 -221 35 0 34 0 3 83 c3 80 3 82 29 85 24 3 31 -5 70
-79 45 -82 68 -103 108 -92 19 5 18 8 -20 86 l-41 80 26 24 c69 64 74 150 12
212 l-36 36 -110 3 -110 4 0 -221z m201 131 c15 -13 22 -30 22 -51 0 -48 -23
-65 -91 -66 l-57 0 -3 68 -3 67 54 0 c38 0 62 -6 78 -18z"/>
<path d="M3253 2399 c-115 -57 -157 -193 -95 -309 39 -76 95 -113 176 -118 47
-3 73 1 101 14 39 18 105 75 105 90 0 6 -14 15 -32 22 -28 10 -34 9 -64 -18
-121 -106 -292 33 -226 184 13 28 33 53 54 66 56 34 149 22 187 -24 11 -13 16
-13 47 1 l34 17 -27 29 c-66 69 -175 88 -260 46z"/>
<path d="M3637 2413 c-4 -3 -7 -102 -7 -220 l0 -213 40 0 40 0 0 220 0 220
-33 0 c-19 0 -37 -3 -40 -7z"/>
<path d="M3840 2200 l0 -220 39 0 39 0 -1 155 c-1 85 1 155 4 155 3 0 53 -70
110 -155 l104 -154 43 -1 42 0 0 220 0 220 -35 0 -35 0 -2 -162 -3 -162 -109
162 -110 162 -43 0 -43 0 0 -220z"/>
<path d="M4350 2200 l0 -220 40 0 40 0 2 159 3 158 105 -156 105 -156 43 -3
42 -3 0 220 0 221 -35 0 -35 0 0 -155 c0 -85 -3 -155 -7 -155 -5 0 -55 70
-112 155 l-105 155 -43 0 -43 0 0 -220z"/>
<path d="M4976 2388 c-33 -78 -146 -387 -146 -397 0 -6 16 -11 34 -11 34 0 36
2 57 60 l22 61 81 -3 81 -3 20 -57 c19 -57 20 -58 57 -58 l37 0 -16 53 c-8 28
-43 126 -77 217 l-61 165 -38 3 c-34 3 -39 0 -51 -30z m89 -175 l13 -43 -54 0
c-30 0 -54 2 -54 4 0 3 12 38 27 78 l27 72 14 -34 c8 -19 20 -54 27 -77z"/>
<path d="M5325 2408 c-2 -7 -6 -106 -10 -220 l-7 -208 35 0 34 0 7 77 c3 42 6
106 6 142 l0 66 53 -105 c50 -101 53 -105 87 -108 l35 -3 45 100 c51 113 57
111 59 -25 1 -45 4 -96 7 -113 6 -28 10 -31 41 -31 l35 0 -6 83 c-3 45 -8 144
-12 220 l-6 138 -36 -3 c-35 -3 -36 -4 -95 -135 -33 -73 -63 -133 -67 -133 -4
0 -36 61 -70 135 -63 134 -64 135 -97 135 -19 0 -35 -6 -38 -12z"/>
<path d="M5990 2404 c-138 -60 -180 -241 -82 -355 79 -93 211 -106 310 -31
104 79 115 236 23 335 -59 64 -169 87 -251 51z m160 -72 c41 -20 80 -89 80
-141 0 -56 -42 -116 -95 -136 -111 -43 -214 36 -203 155 11 112 119 172 218
122z"/>
<path d="M6400 2200 l0 -220 34 0 c33 0 34 1 38 48 3 26 6 94 7 152 1 57 3
106 5 107 2 2 51 -69 110 -157 88 -132 111 -160 130 -160 57 0 56 -3 56 200 0
103 -3 202 -6 219 -6 29 -10 32 -38 29 l-31 -3 -5 -154 -5 -153 -105 155 -105
156 -42 1 -43 0 0 -220z"/>
<path d="M2975 1698 c-3 -8 -4 -59 -3 -114 l3 -99 73 -3 c67 -3 72 -1 72 18 0
17 -6 20 -50 20 l-49 0 -3 92 c-3 79 -6 93 -21 96 -9 2 -19 -3 -22 -10z"/>
<path d="M3233 1690 c-41 -25 -53 -48 -53 -105 0 -38 5 -52 29 -76 25 -24 37
-29 80 -29 41 0 56 5 81 28 61 54 47 158 -25 188 -46 19 -74 18 -112 -6z m101
-41 c49 -39 24 -129 -37 -129 -67 0 -94 87 -41 129 15 12 32 21 39 21 7 0 24
-9 39 -21z"/>
<path d="M3726 1701 c-3 -4 -13 -41 -22 -82 l-17 -74 -21 78 c-19 72 -22 77
-47 77 -25 0 -28 -5 -44 -75 -9 -41 -18 -75 -20 -75 -2 0 -11 34 -20 75 -15
68 -19 75 -41 75 -30 0 -30 0 3 -121 l26 -99 32 0 c31 0 33 2 45 63 17 81 26
89 35 31 11 -79 21 -96 52 -92 25 3 29 10 49 79 37 130 38 136 15 142 -12 3
-23 2 -25 -2z"/>
<path d="M3844 1701 c-2 -2 -4 -53 -4 -113 l0 -108 80 0 c73 0 80 2 80 20 0
18 -7 20 -55 20 -52 0 -55 1 -55 25 0 22 4 25 38 26 20 1 40 1 45 0 4 0 7 8 7
18 0 16 -8 20 -42 23 -36 2 -44 7 -46 26 -3 21 0 22 52 22 49 0 56 3 56 19 0
17 -9 20 -76 23 -42 2 -78 1 -80 -1z"/>
<path d="M4087 1703 c-4 -3 -7 -55 -7 -115 l0 -108 25 0 c22 0 25 4 25 35 0
28 4 35 19 35 11 0 28 -15 40 -35 15 -25 27 -35 46 -35 30 0 31 7 5 40 -25 32
-25 42 0 58 26 16 28 82 3 105 -19 16 -144 33 -156 20z m123 -66 c0 -31 -18
-47 -52 -47 -25 0 -28 3 -28 35 0 34 1 35 40 35 35 0 40 -3 40 -23z"/>
<path d="M4493 1700 c-24 -10 -43 -39 -43 -68 0 -26 27 -48 78 -61 31 -9 42
-17 42 -31 0 -15 -7 -20 -29 -20 -16 0 -34 7 -41 15 -13 16 -60 21 -60 6 0 -4
9 -20 21 -35 17 -21 29 -26 68 -26 57 0 91 21 91 58 0 40 -14 55 -67 72 -28 9
-49 22 -51 32 -5 25 33 32 68 12 24 -15 32 -16 42 -5 11 10 8 17 -15 37 -29
25 -65 30 -104 14z"/>
<path d="M4718 1703 c-16 -4 -18 -18 -18 -114 l0 -109 25 0 c23 0 25 4 25 45
l0 45 44 0 45 0 7 -45 c5 -35 10 -45 25 -45 17 0 19 9 19 109 0 100 -2 109
-20 114 -20 5 -23 -3 -23 -65 0 -15 -9 -18 -48 -18 l-49 0 0 39 c0 43 -5 50
-32 44z"/>
<path d="M5034 1696 c-44 -19 -64 -53 -64 -104 0 -37 6 -50 34 -78 29 -29 41
-34 81 -34 40 0 52 5 81 34 93 93 -11 237 -132 182z m90 -47 c50 -39 23 -129
-39 -129 -71 0 -89 113 -22 140 31 12 31 12 61 -11z"/>
<path d="M5328 1702 l-48 -3 0 -110 c0 -109 0 -110 23 -107 17 2 23 11 25 34
3 29 6 32 48 37 25 2 54 13 64 22 28 25 26 76 -2 102 -28 24 -48 29 -110 25z
m71 -47 c17 -10 13 -52 -5 -59 -9 -3 -27 -6 -40 -6 -21 0 -24 5 -24 33 0 19 2
36 5 39 7 7 50 2 64 -7z"/>
<path d="M2750 1589 c0 -109 0 -110 23 -107 17 2 23 10 25 39 3 34 6 37 43 43
30 5 39 11 39 26 0 17 -7 20 -43 20 -39 0 -43 2 -43 25 0 24 3 25 53 25 46 0
53 3 53 20 0 18 -7 20 -75 20 l-75 0 0 -111z"/>
</g>
</svg>
